<?xml version="1.0" encoding="UTF-8" standalone="no"?>
<!DOCTYPE svg PUBLIC "-//W3C//DTD SVG 1.1//EN" "http://www.w3.org/Graphics/SVG/1.1/DTD/svg11.dtd">
<svg width="100%" height="100%" viewBox="0 0 692 139" version="1.1" xmlns="http://www.w3.org/2000/svg" xmlns:xlink="http://www.w3.org/1999/xlink" xml:space="preserve" xmlns:serif="http://www.serif.com/" style="fill-rule:evenodd;clip-rule:evenodd;stroke-linecap:round;stroke-linejoin:round;stroke-miterlimit:1.5;">
    <g transform="matrix(1,0,0,1,-50.147,-30.8472)">
        <g transform="matrix(0.864017,0,0,0.690499,50.147,30.8472)">
            <rect x="0" y="0" width="800" height="200" style="fill:none;"/>
        </g>
        <g transform="matrix(2.64286,0,0,1.13115,-363.643,-5.7623)">
            <path d="M230.267,123.512C228.62,123.512 227.797,121.588 227.797,117.741L227.797,69.45C227.797,65.603 228.62,63.679 230.267,63.679L243.235,63.679C244.494,63.679 245.124,65.093 245.124,67.922C245.124,70.865 244.494,72.336 243.235,72.336L232.265,72.336L232.265,88.8L242.436,88.8C243.695,88.8 244.325,90.243 244.325,93.129C244.325,96.014 243.695,97.457 242.436,97.457L232.265,97.457L232.265,114.855L243.235,114.855C244.494,114.855 245.124,116.298 245.124,119.184C245.124,122.069 244.494,123.512 243.235,123.512L230.267,123.512Z" style="fill:rgb(100,116,139);fill-rule:nonzero;"/>
            <path d="M255.113,124.361C251.069,124.361 249.047,119.07 249.047,108.49L249.047,68.347C249.047,64.782 249.797,63 251.299,63C252.824,63 253.587,64.782 253.587,68.347L253.587,107.981C253.587,113.073 254.495,115.619 256.312,115.619C256.505,115.619 256.687,115.605 256.856,115.577C257.026,115.548 257.195,115.506 257.365,115.449C257.704,115.336 257.934,115.548 258.055,116.086C258.176,116.623 258.237,117.713 258.237,119.353C258.237,120.768 258.116,121.871 257.874,122.663C257.631,123.455 257.232,123.936 256.675,124.106C256.166,124.276 255.646,124.361 255.113,124.361Z" style="fill:rgb(100,116,139);fill-rule:nonzero;"/>
            <path d="M269.207,124.361C267.197,124.361 265.465,123.484 264.012,121.73C262.559,119.976 261.439,117.486 260.652,114.261C259.865,111.036 259.472,107.217 259.472,102.804C259.472,98.504 259.853,94.741 260.616,91.516C261.379,88.291 262.432,85.759 263.776,83.92C265.12,82.082 266.652,81.162 268.371,81.162C270.89,81.162 272.882,83.029 274.347,86.763C275.812,90.498 276.544,95.59 276.544,102.04C276.544,104.133 275.963,105.18 274.801,105.18L263.831,105.18C264.17,112.592 265.986,116.298 269.279,116.298C269.909,116.298 270.617,116.114 271.404,115.746C272.191,115.379 272.936,114.742 273.638,113.837C274.268,112.988 274.801,112.719 275.237,113.031C275.672,113.342 275.981,113.95 276.163,114.855C276.344,115.761 276.369,116.765 276.235,117.868C276.102,118.971 275.757,119.919 275.2,120.711C274.353,121.956 273.378,122.875 272.276,123.47C271.174,124.064 270.151,124.361 269.207,124.361ZM268.553,88.376C267.221,88.376 266.143,89.338 265.32,91.262C264.497,93.185 264,95.788 263.831,99.07L272.766,99.07C272.67,95.618 272.264,92.973 271.55,91.134C270.835,89.295 269.836,88.376 268.553,88.376Z" style="fill:rgb(100,116,139);fill-rule:nonzero;"/>
            <path d="M282.465,124.191C280.964,124.191 280.213,122.38 280.213,118.759L280.213,86.679C280.213,83.114 280.952,81.332 282.429,81.332C283.906,81.332 284.645,83.114 284.645,86.679L284.645,88.376C285.177,86.113 285.916,84.345 286.86,83.072C287.805,81.799 288.894,81.162 290.13,81.162C292.793,81.162 294.537,83.878 295.36,89.31C295.917,86.763 296.716,84.769 297.758,83.326C298.799,81.883 299.986,81.162 301.317,81.162C305.313,81.162 307.311,86.848 307.311,98.221L307.311,118.759C307.311,122.38 306.548,124.191 305.022,124.191C303.521,124.191 302.77,122.38 302.77,118.759L302.77,98.645C302.77,95.477 302.546,93.157 302.098,91.686C301.65,90.215 300.894,89.479 299.828,89.479C298.642,89.479 297.709,90.455 297.031,92.407C296.353,94.359 296.014,97.061 296.014,100.512L296.014,118.759C296.014,122.38 295.263,124.191 293.762,124.191C292.236,124.191 291.474,122.38 291.474,118.759L291.474,98.645C291.474,95.477 291.25,93.157 290.802,91.686C290.354,90.215 289.609,89.479 288.568,89.479C287.381,89.479 286.449,90.455 285.771,92.407C285.093,94.359 284.754,97.061 284.754,100.512L284.754,118.759C284.754,122.38 283.991,124.191 282.465,124.191Z" style="fill:rgb(100,116,139);fill-rule:nonzero;"/>
            <path d="M320.751,124.361C318.741,124.361 317.01,123.484 315.557,121.73C314.104,119.976 312.984,117.486 312.197,114.261C311.41,111.036 311.016,107.217 311.016,102.804C311.016,98.504 311.397,94.741 312.16,91.516C312.923,88.291 313.976,85.759 315.32,83.92C316.664,82.082 318.196,81.162 319.915,81.162C322.434,81.162 324.426,83.029 325.891,86.763C327.356,90.498 328.088,95.59 328.088,102.04C328.088,104.133 327.507,105.18 326.345,105.18L315.375,105.18C315.714,112.592 317.53,116.298 320.824,116.298C321.453,116.298 322.162,116.114 322.949,115.746C323.736,115.379 324.48,114.742 325.182,113.837C325.812,112.988 326.345,112.719 326.781,113.031C327.217,113.342 327.525,113.95 327.707,114.855C327.889,115.761 327.913,116.765 327.78,117.868C327.646,118.971 327.301,119.919 326.744,120.711C325.897,121.956 324.922,122.875 323.82,123.47C322.718,124.064 321.695,124.361 320.751,124.361ZM320.097,88.376C318.765,88.376 317.688,89.338 316.864,91.262C316.041,93.185 315.544,95.788 315.375,99.07L324.311,99.07C324.214,95.618 323.808,92.973 323.094,91.134C322.379,89.295 321.381,88.376 320.097,88.376Z" style="fill:rgb(100,116,139);fill-rule:nonzero;"/>
            <path d="M333.937,124.191C332.435,124.191 331.685,122.38 331.685,118.759L331.685,86.679C331.685,83.114 332.423,81.332 333.9,81.332C335.378,81.332 336.116,83.114 336.116,86.679L336.116,88.461C336.722,86.085 337.539,84.274 338.568,83.029C339.597,81.784 340.754,81.162 342.037,81.162C346.226,81.162 348.321,86.848 348.321,98.221L348.321,118.759C348.321,122.38 347.57,124.191 346.069,124.191C344.543,124.191 343.781,122.38 343.781,118.759L343.781,98.73C343.781,95.505 343.52,93.157 343,91.686C342.479,90.215 341.674,89.479 340.584,89.479C339.252,89.479 338.193,90.455 337.406,92.407C336.619,94.359 336.225,96.948 336.225,100.173L336.225,118.759C336.225,122.38 335.462,124.191 333.937,124.191Z" style="fill:rgb(100,116,139);fill-rule:nonzero;"/>
            <path d="M361.071,124.361C356.373,124.361 354.024,118.929 354.024,108.066L354.024,89.989L352.135,89.989C350.924,89.989 350.319,88.659 350.319,86C350.319,83.34 350.924,82.011 352.135,82.011L354.024,82.011L354.024,74.288C354.024,70.723 354.787,68.941 356.312,68.941C357.814,68.941 358.565,70.723 358.565,74.288L358.565,82.011L362.415,82.011C363.626,82.011 364.231,83.34 364.231,86C364.231,88.659 363.626,89.989 362.415,89.989L358.565,89.989L358.565,107.472C358.565,110.187 358.819,112.224 359.327,113.582C359.836,114.94 360.659,115.619 361.797,115.619C362.209,115.619 362.572,115.534 362.887,115.365C363.202,115.195 363.48,115.082 363.723,115.025C364.013,114.968 364.255,115.181 364.449,115.662C364.643,116.142 364.74,117.118 364.74,118.59C364.74,119.721 364.661,120.725 364.504,121.602C364.346,122.479 364.062,123.088 363.65,123.427C363.335,123.653 362.923,123.866 362.415,124.064C361.906,124.262 361.458,124.361 361.071,124.361Z" style="fill:rgb(100,116,139);fill-rule:nonzero;"/>
            <path d="M372.731,124.361C371.448,124.361 370.303,123.781 369.298,122.621C368.293,121.461 367.506,119.891 366.937,117.911C366.368,115.93 366.084,113.695 366.084,111.206C366.084,108.151 366.423,105.732 367.101,103.95C367.779,102.167 368.881,100.88 370.406,100.088C371.932,99.296 373.978,98.9 376.545,98.9L377.816,98.9L377.816,97.118C377.816,94.289 377.55,92.252 377.017,91.007C376.485,89.762 375.589,89.14 374.329,89.14C373.627,89.14 372.87,89.338 372.059,89.734C371.248,90.13 370.394,90.809 369.498,91.771C368.917,92.393 368.433,92.464 368.045,91.983C367.658,91.502 367.397,90.738 367.264,89.691C367.131,88.645 367.155,87.584 367.337,86.509C367.518,85.434 367.888,84.642 368.445,84.133C369.559,83.058 370.63,82.294 371.659,81.841C372.689,81.388 373.627,81.162 374.475,81.162C377.066,81.162 378.991,82.562 380.25,85.363C381.509,88.164 382.139,92.506 382.139,98.391L382.139,118.759C382.139,122.38 381.437,124.191 380.032,124.191C378.603,124.191 377.889,122.38 377.889,118.759L377.889,116.892C377.477,119.212 376.824,121.037 375.928,122.366C375.032,123.696 373.966,124.361 372.731,124.361ZM373.675,117.062C374.862,117.062 375.849,116.1 376.636,114.176C377.423,112.253 377.816,109.82 377.816,106.878L377.816,105.01L376.581,105.01C374.305,105.01 372.725,105.421 371.841,106.241C370.957,107.061 370.515,108.547 370.515,110.697C370.515,112.564 370.794,114.091 371.351,115.28C371.908,116.468 372.683,117.062 373.675,117.062Z" style="fill:rgb(100,116,139);fill-rule:nonzero;"/>
            <path d="M389.077,124.191C387.527,124.191 386.752,122.38 386.752,118.759L386.752,86.679C386.752,83.114 387.491,81.332 388.968,81.332C390.445,81.332 391.184,83.114 391.184,86.679L391.184,89.31C392.056,84.444 393.92,81.728 396.778,81.162C397.819,80.879 398.4,82.265 398.521,85.321C398.642,88.319 398.013,89.989 396.632,90.328L395.833,90.498C392.855,91.177 391.365,94.741 391.365,101.191L391.365,118.759C391.365,122.38 390.603,124.191 389.077,124.191Z" style="fill:rgb(100,116,139);fill-rule:nonzero;"/>
            <path d="M406.585,139.467C405.762,139.467 405.193,138.76 404.878,137.346C404.563,135.931 404.575,134.319 404.914,132.508L406.985,121.815L400.773,88.376C400.434,86.509 400.434,84.868 400.773,83.454C401.112,82.039 401.778,81.332 402.771,81.332C403.328,81.332 403.776,81.629 404.115,82.223C404.454,82.817 404.757,83.934 405.023,85.575L409.382,111.036L413.85,85.49C414.117,83.906 414.431,82.817 414.795,82.223C415.158,81.629 415.642,81.332 416.248,81.332C417.022,81.332 417.567,82.039 417.882,83.454C418.197,84.868 418.185,86.481 417.846,88.291L409.019,135.394C408.704,136.978 408.365,138.053 408.002,138.619C407.639,139.185 407.166,139.467 406.585,139.467Z" style="fill:rgb(100,116,139);fill-rule:nonzero;"/>
        </g>
        <g transform="matrix(-0.4375,0.757772,-0.757772,-0.4375,250.722,67.6525)">
            <path d="M101,101L141,31.718L61,31.718L21,101L61,170.282L141,170.282" style="fill:rgb(236,72,153);stroke:rgb(71,85,105);stroke-width:18.29px;"/>
        </g>
        <g transform="matrix(0.875,0,0,0.875,41.625,11.625)">
            <path d="M101,101L141,31.718L61,31.718L21,101L61,170.282L141,170.282" style="fill:none;stroke:rgb(100,116,139);stroke-width:18.29px;"/>
        </g>
    </g>
</svg>
